<?xml version="1.0" encoding="UTF-8" standalone="no" ?>
<!DOCTYPE svg PUBLIC "-//W3C//DTD SVG 1.1//EN" "http://www.w3.org/Graphics/SVG/1.1/DTD/svg11.dtd">
<svg xmlns="http://www.w3.org/2000/svg" xmlns:xlink="http://www.w3.org/1999/xlink" version="1.1" width="1080" height="1080" viewBox="0 0 1080 1080" xml:space="preserve">
<desc>Created with Fabric.js 5.2.4</desc>
<defs>
</defs>
<rect x="0" y="0" width="100%" height="100%" fill="transparent"></rect>
<g transform="matrix(1 0 0 1 540 540)" id="ab9b7830-f5ba-4b0d-99c6-e973f0a81917"  >
<rect style="stroke: none; stroke-width: 1; stroke-dasharray: none; stroke-linecap: butt; stroke-dashoffset: 0; stroke-linejoin: miter; stroke-miterlimit: 4; fill: rgb(255,255,255); fill-rule: nonzero; opacity: 1; visibility: hidden;" vector-effect="non-scaling-stroke"  x="-540" y="-540" rx="0" ry="0" width="1080" height="1080" />
</g>
<g transform="matrix(1 0 0 1 540 540)" id="e18b8fe1-4b09-4456-bd83-450d769d1d62"  >
</g>
<g transform="matrix(1.12 0 0 1.12 651.03 682.23)"  >
<g style="" vector-effect="non-scaling-stroke"   >
		<g transform="matrix(1 0 0 1 0 0)"  >
<rect style="stroke: none; stroke-width: 1; stroke-dasharray: none; stroke-linecap: butt; stroke-dashoffset: 0; stroke-linejoin: miter; stroke-miterlimit: 4; fill: rgb(255,255,255); fill-rule: nonzero; opacity: 1; visibility: hidden;" vector-effect="non-scaling-stroke"  x="-540" y="-540" rx="0" ry="0" width="1080" height="1080" />
</g>
		<g transform="matrix(5.8 0 0 5.8 -62.65 -143.7)"  >
<path style="stroke: none; stroke-width: 0; stroke-dasharray: none; stroke-linecap: butt; stroke-dashoffset: 0; stroke-linejoin: miter; stroke-miterlimit: 4; fill: rgb(0,0,0); fill-rule: nonzero; opacity: 1;" vector-effect="non-scaling-stroke"  transform=" translate(-50, -50.05)" d="M 82.7 50.8 C 86.4 47.599999999999994 88.8 42.9 88.8 37.599999999999994 C 88.8 27.999999999999993 80.89999999999999 20.099999999999994 71.3 20.099999999999994 C 61.699999999999996 20.099999999999994 53.8 27.899999999999995 53.8 37.599999999999994 C 53.8 42.89999999999999 56.199999999999996 47.599999999999994 59.9 50.8 C 57.1 51.8 54.5 53.4 52.3 55.4 C 49.699999999999996 50.4 45.3 46.5 40 44.599999999999994 C 43.7 41.39999999999999 46.1 36.699999999999996 46.1 31.399999999999995 C 46.1 21.799999999999997 38.300000000000004 13.899999999999995 28.6 13.899999999999995 C 18.9 13.899999999999995 11.100000000000001 21.699999999999996 11.100000000000001 31.399999999999995 C 11.100000000000001 36.699999999999996 13.500000000000002 41.39999999999999 17.200000000000003 44.599999999999994 C 8.7 47.7 2.5 56 2.5 65.7 L 2.5 76.60000000000001 C 2.5 78.4 4 79.9 5.8 79.9 L 45.099999999999994 79.9 L 45.099999999999994 82.9 C 45.099999999999994 84.7 46.599999999999994 86.2 48.39999999999999 86.2 L 94.19999999999999 86.2 C 95.99999999999999 86.2 97.49999999999999 84.7 97.49999999999999 82.9 L 97.49999999999999 71.9 C 97.5 62.2 91.3 54 82.7 50.8 z M 71.3 26.6 C 77.3 26.6 82.3 31.5 82.3 37.6 C 82.3 43.7 77.39999999999999 48.6 71.3 48.6 C 65.3 48.6 60.3 43.7 60.3 37.6 C 60.3 31.5 65.3 26.6 71.3 26.6 z M 28.7 20.4 C 34.7 20.4 39.7 25.299999999999997 39.7 31.4 C 39.7 37.5 34.800000000000004 42.4 28.700000000000003 42.4 C 22.700000000000003 42.4 17.700000000000003 37.5 17.700000000000003 31.4 C 17.700000000000003 25.299999999999997 22.7 20.4 28.7 20.4 z M 9 73.4 L 9 65.80000000000001 C 9 57.000000000000014 16.2 49.80000000000001 25 49.80000000000001 L 32.3 49.80000000000001 C 39.699999999999996 49.80000000000001 45.8 54.80000000000001 47.699999999999996 61.60000000000001 C 46.099999999999994 64.7 45.099999999999994 68.30000000000001 45.099999999999994 72.10000000000001 L 45.099999999999994 73.50000000000001 L 9 73.50000000000001 z M 91 79.6 L 51.7 79.6 L 51.7 72 C 51.7 63.2 58.900000000000006 56 67.7 56 L 75 56 C 83.8 56 91 63.2 91 72 L 91 79.6 z" stroke-linecap="round" />
</g>
</g>
</g>
</svg>