<?xml version="1.0" encoding="UTF-8" standalone="no" ?>
<!DOCTYPE svg PUBLIC "-//W3C//DTD SVG 1.1//EN" "http://www.w3.org/Graphics/SVG/1.1/DTD/svg11.dtd">
<svg xmlns="http://www.w3.org/2000/svg" xmlns:xlink="http://www.w3.org/1999/xlink" version="1.1" width="1080" height="1080" viewBox="0 0 1080 1080" xml:space="preserve">
<desc>Created with Fabric.js 5.2.4</desc>
<defs>
</defs>
<rect x="0" y="0" width="100%" height="100%" fill="transparent"></rect>
<g transform="matrix(1 0 0 1 540 540)" id="ab9b7830-f5ba-4b0d-99c6-e973f0a81917"  >
<rect style="stroke: none; stroke-width: 1; stroke-dasharray: none; stroke-linecap: butt; stroke-dashoffset: 0; stroke-linejoin: miter; stroke-miterlimit: 4; fill: rgb(255,255,255); fill-rule: nonzero; opacity: 1; visibility: hidden;" vector-effect="non-scaling-stroke"  x="-540" y="-540" rx="0" ry="0" width="1080" height="1080" />
</g>
<g transform="matrix(1 0 0 1 540 540)" id="e18b8fe1-4b09-4456-bd83-450d769d1d62"  >
</g>
<g transform="matrix(10.36 0 0 9.74 582.51 567.45)"  >
<path style="stroke: none; stroke-width: 1; stroke-dasharray: none; stroke-linecap: butt; stroke-dashoffset: 0; stroke-linejoin: miter; stroke-miterlimit: 4; fill: rgb(0,0,0); fill-rule: nonzero; opacity: 1;" vector-effect="non-scaling-stroke"  transform=" translate(-32, -32)" d="M 48.059 39.741 L 41.096 37.598 C 43.602999999999994 35.445 45.349 32.429 45.843999999999994 28.999 L 47 28.999 C 47.553 28.999 48 28.551 48 27.999 L 48 15 L 52 15 L 52 13 L 47.84 13 C 46.865 6.227 41.039 1 34 1 L 30 1 C 22.961 1 17.134999999999998 6.227 16.16 13 L 12 13 L 12 15 L 16 15 L 16 28 C 16 28.552 16.447 29 17 29 L 18.157 29 C 18.652 32.43 20.398 35.446 22.905 37.599000000000004 L 15.942 39.742000000000004 C 12.985 40.65 11 43.339 11 46.432 L 11 62 C 11 62.552 11.447 63 12 63 L 52 63 C 52.553 63 53 62.552 53 62 L 53 46.432 C 53 43.339 51.015 40.65 48.059 39.741 z M 44 57 L 38 57 L 38 55 L 44 55 L 44 57 z M 44 49 L 36 49 L 36 51 L 44 51 L 44 53 L 37 53 C 36.447 53 36 53.448 36 54 L 36 58 C 36 58.552 36.447 59 37 59 L 44 59 L 44 61 L 20 61 L 20 59 L 27 59 C 27.553 59 28 58.552 28 58 L 28 54 C 28 53.448 27.553 53 27 53 L 20 53 L 20 51 L 28 51 L 28 49 L 20 49 L 20 40.584 L 24.128 39.314 C 24.745 42.547 27.59 45 31 45 L 33 45 C 36.41 45 39.255 42.547 39.872 39.314 L 44 40.584 L 44 49 z M 20 55 L 26 55 L 26 57 L 20 57 L 20 55 z M 26.342 39.778 C 28.081 40.556 29.994 41 32 41 C 34.006 41 35.919 40.556 37.658 39.778 C 36.938 41.657 35.129 43 33 43 L 31 43 C 28.871 43 27.062 41.657 26.342 39.778 z M 18.7 11 L 26 11 C 26.553 11 27 10.552 27 10 L 27 7 L 25 7 L 25 9 L 19.624 9 C 21.543999999999997 5.692 24.991999999999997 3.3840000000000003 29 3.051 L 29 6 C 29 6.552 29.447 7 30 7 L 33 7 L 33 11 L 35 11 L 35 6 C 35 5.448 34.553 5 34 5 L 31 5 L 31 3 L 34 3 C 38.43 3 42.298 5.4190000000000005 44.376 9 L 43 9 L 43 11 L 45.3 11 C 45.528999999999996 11.644 45.702999999999996 12.311 45.818999999999996 13 L 39 13 L 39 11 L 40 11 C 40.553 11 41 10.552 41 10 L 41 7 L 39 7 L 39 9 L 38 9 C 37.447 9 37 9.448 37 10 L 37 13 L 31 13 L 31 9 L 29 9 L 29 13 L 18.181 13 C 18.297 12.311 18.471 11.644 18.7 11 z M 18 15 L 46 15 L 46 27 L 18 27 L 18 15 z M 20.17 29 L 43.83 29 C 42.87 34.687 37.871 39 32 39 C 26.128999999999998 39 21.13 34.687 20.17 29 z M 13 46.432 C 13 44.223 14.418 42.302 16.529 41.653000000000006 L 18 41.2 L 18 61 L 13 61 L 13 46.432 z M 51 61 L 46 61 L 46 41.2 L 47.471000000000004 41.653000000000006 C 49.582 42.302 51 44.223 51 46.432 L 51 61 z" stroke-linecap="round" />
</g>
</svg>